<mxfile host="app.diagrams.net" modified="2023-10-02T12:47:33.361Z" agent="Mozilla/5.0 (Windows NT 10.0; Win64; x64) AppleWebKit/537.36 (KHTML, like Gecko) Chrome/116.0.0.0 Safari/537.36" etag="njls10dmk2M1tduNfbie" version="22.0.0" type="github">
  <diagram id="R2lEEEUBdFMjLlhIrx00" name="Page-1">
    <mxGraphModel dx="1434" dy="790" grid="1" gridSize="10" guides="1" tooltips="1" connect="1" arrows="1" fold="1" page="1" pageScale="1" pageWidth="850" pageHeight="1100" math="0" shadow="0" extFonts="Permanent Marker^https://fonts.googleapis.com/css?family=Permanent+Marker">
      <root>
        <mxCell id="0" />
        <mxCell id="1" parent="0" />
        <mxCell id="H4giXLRnW2gy8_b_BsiK-1" value="DIRECCION" style="swimlane;whiteSpace=wrap;html=1;perimeterSpacing=7;strokeWidth=2;swimlaneLine=0;glass=0;fillColor=none;strokeColor=#000000;" vertex="1" parent="1">
          <mxGeometry x="80" y="40" width="110" height="130" as="geometry" />
        </mxCell>
        <mxCell id="H4giXLRnW2gy8_b_BsiK-2" value="#id&lt;br&gt;*numero&lt;br&gt;*calle&lt;br&gt;*comuna&lt;br&gt;*ciudad" style="text;html=1;align=left;verticalAlign=middle;resizable=0;points=[];autosize=1;strokeColor=none;fillColor=none;" vertex="1" parent="H4giXLRnW2gy8_b_BsiK-1">
          <mxGeometry x="10" y="20" width="70" height="90" as="geometry" />
        </mxCell>
        <mxCell id="H4giXLRnW2gy8_b_BsiK-3" value="esta en" style="text;html=1;align=left;verticalAlign=middle;resizable=0;points=[];autosize=1;strokeColor=none;fillColor=none;" vertex="1" parent="1">
          <mxGeometry x="144" y="170" width="60" height="30" as="geometry" />
        </mxCell>
      </root>
    </mxGraphModel>
  </diagram>
</mxfile>
